<?xml version="1.0" encoding="UTF-8"?>
<svg xmlns="http://www.w3.org/2000/svg" style="display: none;">
  <symbol id="cpu-icon" viewBox="0 0 24 24">
    <rect x="4" y="4" width="16" height="16" rx="2" stroke="currentColor" fill="none" stroke-width="2"/>
    <rect x="8" y="8" width="8" height="8" rx="1" stroke="currentColor" fill="none" stroke-width="2"/>
  </symbol>
  
  <symbol id="ram-icon" viewBox="0 0 24 24">
    <rect x="2" y="6" width="20" height="12" rx="1" stroke="currentColor" fill="none" stroke-width="2"/>
    <line x1="6" y1="10" x2="6" y2="14" stroke="currentColor" stroke-width="2"/>
    <line x1="10" y1="10" x2="10" y2="14" stroke="currentColor" stroke-width="2"/>
    <line x1="14" y1="10" x2="14" y2="14" stroke="currentColor" stroke-width="2"/>
    <line x1="18" y1="10" x2="18" y2="14" stroke="currentColor" stroke-width="2"/>
  </symbol>
  
  <symbol id="disk-icon" viewBox="0 0 24 24">
    <circle cx="12" cy="12" r="10" stroke="currentColor" fill="none" stroke-width="2"/>
    <circle cx="12" cy="12" r="3" stroke="currentColor" fill="none" stroke-width="2"/>
  </symbol>
  
  <symbol id="bandwidth-icon" viewBox="0 0 24 24">
    <path d="M12 2L2 12h5v8h10v-8h5L12 2z" stroke="currentColor" fill="none" stroke-width="2"/>
  </symbol>
  
  <symbol id="location-icon" viewBox="0 0 24 24">
    <path d="M12 2C8.13 2 5 5.13 5 9c0 5.25 7 13 7 13s7-7.75 7-13c0-3.87-3.13-7-7-7z" stroke="currentColor" fill="none" stroke-width="2"/>
    <circle cx="12" cy="9" r="3" stroke="currentColor" fill="none" stroke-width="2"/>
  </symbol>
  
  <symbol id="vds-icon" viewBox="0 0 24 24">
    <rect x="3" y="6" width="18" height="12" rx="2" stroke="currentColor" fill="none" stroke-width="2"/>
    <path d="M7 10h10M7 14h6" stroke="currentColor" stroke-width="2"/>
  </symbol>
  
  <symbol id="server-icon" viewBox="0 0 24 24">
    <rect x="4" y="2" width="16" height="20" rx="2" stroke="currentColor" fill="none" stroke-width="2"/>
    <line x1="8" y1="6" x2="16" y2="6" stroke="currentColor" stroke-width="2"/>
    <line x1="8" y1="10" x2="16" y2="10" stroke="currentColor" stroke-width="2"/>
    <line x1="8" y1="14" x2="16" y2="14" stroke="currentColor" stroke-width="2"/>
    <line x1="8" y1="18" x2="16" y2="18" stroke="currentColor" stroke-width="2"/>
  </symbol>
</svg> 